<svg xmlns="http://www.w3.org/2000/svg" width="1024" height="1024" viewBox="0 0 1024 1024">
  <defs>
    <linearGradient id="bg" x1="0" y1="0" x2="1" y2="1">
      <stop offset="0%" stop-color="#4a6fa5"/>
      <stop offset="100%" stop-color="#2d4a7a"/>
    </linearGradient>
  </defs>
  <rect width="1024" height="1024" rx="220" fill="url(#bg)"/>
  <g stroke="rgba(255,255,255,0.08)" stroke-width="28" stroke-linecap="round" stroke-linejoin="round" fill="none">
    <polyline points="180,280 180,180 380,180"/>
    <polyline points="480,180 680,180 680,300"/>
    <polyline points="180,380 180,480 300,480"/>
    <polyline points="680,400 680,520 780,520"/>
    <polyline points="180,580 180,680 300,680"/>
    <polyline points="480,680 680,680 680,580"/>
    <polyline points="780,180 840,180 840,380"/>
    <polyline points="840,480 840,780 680,780"/>
    <polyline points="180,780 180,840 480,840"/>
  </g>
  <g stroke="white" stroke-width="52" stroke-linecap="round" stroke-linejoin="round" fill="none">
    <polyline points="260,700 260,420 420,420 420,560 580,560 580,380 740,380"/>
  </g>
  <polygon points="800,380 710,310 710,450" fill="white"/>
  <g stroke="rgba(255,255,255,0.35)" stroke-width="30" stroke-linecap="round" stroke-linejoin="round" fill="none">
    <polyline points="560,760 700,760"/>
  </g>
  <polygon points="740,760 690,730 690,790" fill="rgba(255,255,255,0.35)"/>
</svg>
